# xmcd
#
# Track frame offsets: 
#        150
#        26237
#        42105
#        59385
#        81382
#        100325
#        117737
#        138287
#        158675
#        179462
#        200880
#        225790
#        243757
#
# Disc length: 3472 seconds
#
# Revision: 4
# Processed by: cddbd v1.5.2PL0 Copyright (c) Steve Scherf et al.
# Submitted via: ExactAudioCopy v0.95b4
#
DISCID=ae0d8e0d
DTITLE=Patricia Kaas - Le Mot De Passe
DYEAR=1999
DGENRE=Variétés françaises
TTITLE0=Ma liberté contre la tienne
TTITLE1=Une fille de l'est
TTITLE2=Si tu rêves
TTITLE3=J'attends de nous
TTITLE4=Le mot de passe
TTITLE5=Les éternelles
TTITLE6=La clé
TTITLE7=Mon chercheur d'or
TTITLE8=Quand je t'oublie
TTITLE9=Une femme comme une autre
TTITLE10=Les chansons commencent
TTITLE11=Et je m'en veux
TTITLE12=Unter der Haut  (Les éternelles)
EXTD=
EXTT0=
EXTT1=
EXTT2=
EXTT3=
EXTT4=
EXTT5=
EXTT6=
EXTT7=
EXTT8=
EXTT9=
EXTT10=
EXTT11=
EXTT12=
PLAYORDER=
